<svg
  width="16"
  height="18"
  viewBox="0 0 16 18"
  fill="none"
  xmlns="http://www.w3.org/2000/svg"
>
  <path
    fill-rule="evenodd"
    clip-rule="evenodd"
    d="M1.2972 4.92604C2.12012 1.94246 4.91898 0 8 0C11.081 0 13.8799 1.94246 14.7028 4.92604C14.9006 5.64337 15.0849 6.36463 15.2233 7.01036C15.5464 8.51739 15.8157 10.529 15.9823 11.9217C16.1392 13.2325 15.2355 14.4335 13.9086 14.6439C12.3181 14.896 9.86365 15.2308 8 15.2308C6.13635 15.2308 3.68191 14.896 2.09143 14.6439C0.764542 14.4335 -0.139154 13.2325 0.0176565 11.9217C0.184279 10.529 0.453613 8.51739 0.776676 7.01036C0.915101 6.36463 1.09936 5.64337 1.2972 4.92604ZM8 1.38462C5.50217 1.38462 3.29317 2.95427 2.64889 5.29018C2.45489 5.99357 2.27808 6.68707 2.14726 7.29733C1.83849 8.73769 1.57517 10.6951 1.40897 12.0843C1.33938 12.666 1.73642 13.1853 2.31333 13.2767C3.90039 13.5283 6.2581 13.8462 8 13.8462C9.74191 13.8462 12.0996 13.5283 13.6867 13.2767C14.2636 13.1853 14.6606 12.666 14.591 12.0843C14.4248 10.6951 14.1615 8.73769 13.8527 7.29733C13.7219 6.68707 13.5451 5.99357 13.3511 5.29018C12.7068 2.95427 10.4978 1.38462 8 1.38462Z"
    fill="#272A2E"
  />
  <path
    fill-rule="evenodd"
    clip-rule="evenodd"
    d="M6.13199 13.8462C6.51887 13.8462 6.83249 14.1561 6.83249 14.5385V15.4615C6.83249 16.0988 7.3552 16.6154 8 16.6154C8.6448 16.6154 9.16751 16.0988 9.16751 15.4615V14.5385C9.16751 14.1561 9.48113 13.8462 9.86801 13.8462C10.2549 13.8462 10.5685 14.1561 10.5685 14.5385V15.4615C10.5685 16.8635 9.41855 18 8 18C6.58145 18 5.43149 16.8635 5.43149 15.4615V14.5385C5.43149 14.1561 5.74511 13.8462 6.13199 13.8462Z"
    fill="#272A2E"
  />
</svg>
