<svg
  width="18"
  height="14"
  viewBox="0 0 18 14"
  fill="none"
  xmlns="http://www.w3.org/2000/svg"
>
  <path
    fill-rule="evenodd"
    clip-rule="evenodd"
    d="M0.400391 0.999903C0.400391 0.668532 0.66902 0.399902 1.00039 0.399902H17.0004C17.3318 0.399902 17.6004 0.668532 17.6004 0.999903C17.6004 1.33127 17.3318 1.5999 17.0004 1.5999H1.00039C0.66902 1.5999 0.400391 1.33127 0.400391 0.999903ZM0.400391 6.9999C0.400391 6.66853 0.66902 6.3999 1.00039 6.3999H17.0004C17.3318 6.3999 17.6004 6.66853 17.6004 6.9999C17.6004 7.33127 17.3318 7.5999 17.0004 7.5999H1.00039C0.66902 7.5999 0.400391 7.33127 0.400391 6.9999ZM1.00039 12.3999C0.66902 12.3999 0.400391 12.6685 0.400391 12.9999C0.400391 13.3313 0.66902 13.5999 1.00039 13.5999H17.0004C17.3318 13.5999 17.6004 13.3313 17.6004 12.9999C17.6004 12.6685 17.3318 12.3999 17.0004 12.3999H1.00039Z"
    fill="black"
  />
</svg>
