<svg width="18" height="18" viewBox="0 0 18 18" fill="none" xmlns="http://www.w3.org/2000/svg">
  <path
    fill-rule="evenodd"
    clip-rule="evenodd"
    d="M8.53846 1.38462C4.58675 1.38462 1.38462 4.5842 1.38462 8.52941C1.38462 12.4746 4.58675 15.6742 8.53846 15.6742C10.51 15.6742 12.2939 14.8786 13.5885 13.59C14.8889 12.2955 15.6923 10.5068 15.6923 8.52941C15.6923 4.5842 12.4902 1.38462 8.53846 1.38462ZM0 8.52941C0 3.81799 3.82355 0 8.53846 0C13.2534 0 17.0769 3.81799 17.0769 8.52941C17.0769 10.6402 16.3086 12.5727 15.0375 14.0616L17.7969 16.8179C18.0675 17.0881 18.0677 17.5264 17.7975 17.7969C17.5273 18.0675 17.089 18.0677 16.8184 17.7975L14.0564 15.0387C12.5685 16.2983 10.6418 17.0588 8.53846 17.0588C3.82355 17.0588 0 13.2408 0 8.52941Z"
    fill="#272A2E"
  />
</svg>
